<?xml version="1.0" encoding="utf-8"?>
<!-- Generator: Adobe Illustrator 17.1.0, SVG Export Plug-In . SVG Version: 6.00 Build 0)  -->
<!DOCTYPE svg PUBLIC "-//W3C//DTD SVG 1.1//EN" "http://www.w3.org/Graphics/SVG/1.1/DTD/svg11.dtd">
<svg version="1.1" id="Layer_1" xmlns="http://www.w3.org/2000/svg" xmlns:xlink="http://www.w3.org/1999/xlink" x="0px" y="0px"
	 viewBox="0 0 512 512" enable-background="new 0 0 512 512" xml:space="preserve">
<path fill="#424242" d="M472.6,157.5v315.1H39.4V157.5H472.6 M512,118.2H0V512h512V118.2L512,118.2z"/>
<rect x="118.2" y="157.5" fill="#424242" width="39.4" height="315.1"/>
<rect x="236.3" y="157.5" fill="#424242" width="39.4" height="315.1"/>
<rect x="354.5" y="157.5" fill="#424242" width="39.4" height="315.1"/>
<rect y="236.3" fill="#424242" width="472.6" height="39.4"/>
<rect y="354.5" fill="#424242" width="472.6" height="39.4"/>
<rect x="157.5" y="275.7" fill="#424242" width="78.8" height="78.8"/>
<path fill="#424242" d="M512,39.4c0,21.8,0,39.4,0,39.4H0c0,0,0-17.6,0-39.4l0,0C0,17.6,17.6,0,39.4,0h433.2
	C494.4,0,512,17.6,512,39.4L512,39.4z"/>
<rect y="118.2" fill="#424242" width="39.4" height="393.8"/>
</svg>
