<?xml version="1.0" encoding="utf-8"?>
<!-- Generator: Adobe Illustrator 16.0.2, SVG Export Plug-In . SVG Version: 6.00 Build 0)  -->
<!DOCTYPE svg PUBLIC "-//W3C//DTD SVG 1.1//EN" "http://www.w3.org/Graphics/SVG/1.1/DTD/svg11.dtd">
<svg version="1.1" id="Layer_1" xmlns="http://www.w3.org/2000/svg" xmlns:xlink="http://www.w3.org/1999/xlink" x="0px" y="0px"
	 width="22px" height="66px" viewBox="0 0 22 66" enable-background="new 0 0 22 66" xml:space="preserve">
<g>
	<path fill="#2969BF" d="M10.542,35.291c-0.243,0.243-0.284,0.611-0.124,0.896l-5.23,5.229l-2.605-2.605l5.23-5.229
		c0.285,0.16,0.652,0.119,0.896-0.124c0.293-0.292,0.293-0.768,0-1.059c-0.504-0.506-1.326-0.506-1.831,0L1.38,37.896
		c-0.505,0.506-0.505,1.326,0,1.832l2.895,2.894c0.504,0.505,1.326,0.505,1.832,0l5.499-5.498c0.504-0.505,0.504-1.326,0-1.832
		C11.309,34.999,10.835,34.999,10.542,35.291z"/>
	<path fill="#2969BF" d="M15.896,23.379l-5.499,5.498c-0.504,0.505-0.504,1.327,0,1.831c0.291,0.292,0.767,0.292,1.06,0
		c0.242-0.242,0.284-0.61,0.124-0.896l5.23-5.23l2.604,2.605l-5.229,5.23c-0.285-0.16-0.653-0.118-0.896,0.125
		c-0.293,0.292-0.293,0.768,0,1.06c0.506,0.506,1.326,0.506,1.832,0l5.498-5.499c0.505-0.504,0.505-1.326,0-1.83l-2.895-2.895
		C17.223,22.874,16.4,22.874,15.896,23.379z"/>
	<path fill="#2969BF" d="M6.082,37.918c0.292,0.292,0.768,0.292,1.061,0l8.726-8.727c0.293-0.293,0.293-0.768,0-1.061
		c-0.292-0.292-0.768-0.293-1.061,0l-8.727,8.728C5.79,37.15,5.789,37.625,6.082,37.918z"/>
</g>
<g>
	<path fill="#5D5D5D" d="M10.542,13.291c-0.243,0.243-0.284,0.611-0.124,0.896l-5.23,5.229L2.583,16.81l5.23-5.229
		c0.285,0.16,0.652,0.119,0.896-0.124c0.293-0.292,0.293-0.768,0-1.059c-0.504-0.506-1.326-0.506-1.831,0L1.38,15.896
		c-0.505,0.506-0.505,1.326,0,1.832l2.895,2.894c0.504,0.505,1.326,0.505,1.832,0l5.499-5.498c0.504-0.505,0.504-1.326,0-1.832
		C11.309,12.999,10.835,12.999,10.542,13.291z"/>
	<path fill="#5D5D5D" d="M15.896,1.379l-5.499,5.498c-0.504,0.505-0.504,1.327,0,1.831c0.291,0.292,0.767,0.292,1.06,0
		c0.242-0.242,0.284-0.61,0.124-0.896l5.23-5.23l2.604,2.605l-5.229,5.23c-0.285-0.16-0.653-0.118-0.896,0.125
		c-0.293,0.292-0.293,0.768,0,1.059c0.506,0.506,1.326,0.506,1.832,0l5.498-5.498c0.505-0.504,0.505-1.326,0-1.83l-2.895-2.895
		C17.223,0.874,16.4,0.874,15.896,1.379z"/>
	<path fill="#5D5D5D" d="M6.082,15.918c0.292,0.292,0.768,0.292,1.061,0l8.726-8.727c0.293-0.293,0.293-0.768,0-1.061
		c-0.292-0.292-0.768-0.293-1.061,0l-8.727,8.727C5.79,15.15,5.789,15.625,6.082,15.918z"/>
</g>
<g>
	<path fill="#FFFFFF" d="M10.542,57.291c-0.243,0.243-0.284,0.611-0.124,0.896l-5.23,5.229l-2.605-2.605l5.23-5.229
		c0.285,0.16,0.652,0.119,0.896-0.124c0.293-0.293,0.293-0.768,0-1.059c-0.504-0.506-1.326-0.506-1.831-0.002l-5.498,5.5
		c-0.505,0.504-0.505,1.326,0,1.83l2.895,2.895c0.504,0.505,1.326,0.505,1.832,0l5.499-5.498c0.504-0.505,0.504-1.326,0-1.832
		C11.309,56.999,10.835,56.999,10.542,57.291z"/>
	<path fill="#FFFFFF" d="M15.896,45.379l-5.499,5.498c-0.504,0.505-0.504,1.326,0,1.831c0.291,0.292,0.767,0.292,1.06,0
		c0.242-0.242,0.284-0.61,0.124-0.896l5.23-5.23l2.604,2.605l-5.229,5.229c-0.285-0.16-0.653-0.118-0.896,0.125
		c-0.293,0.292-0.293,0.768,0,1.061c0.506,0.506,1.326,0.506,1.832,0l5.498-5.498c0.505-0.506,0.505-1.326,0-1.832l-2.895-2.895
		C17.223,44.874,16.4,44.874,15.896,45.379z"/>
	<path fill="#FFFFFF" d="M6.082,59.918c0.292,0.292,0.768,0.292,1.061,0l8.726-8.727c0.293-0.293,0.293-0.77,0-1.062
		c-0.292-0.292-0.768-0.293-1.061,0l-8.727,8.728C5.79,59.15,5.789,59.625,6.082,59.918z"/>
</g>
</svg>
