<?xml version="1.0" encoding="utf-8"?>
<!-- Generator: Adobe Illustrator 18.0.0, SVG Export Plug-In . SVG Version: 6.00 Build 0)  -->
<!DOCTYPE svg PUBLIC "-//W3C//DTD SVG 1.1//EN" "http://www.w3.org/Graphics/SVG/1.1/DTD/svg11.dtd">
<svg version="1.1" id="Layer_1" xmlns="http://www.w3.org/2000/svg" xmlns:xlink="http://www.w3.org/1999/xlink" x="0px" y="0px"
	 width="512px" height="512px" viewBox="0 0 512 512" style="enable-background:new 0 0 512 512;" xml:space="preserve">
<style type="text/css">
	.st0{fill:#434343;}
</style>
<g>
	<path d="M244.285,314.668c-6.212,6.212-7.272,15.629-3.172,22.933L107.216,471.498l-66.714-66.714l133.897-133.897
		c7.304,4.099,16.721,3.039,22.933-3.172c7.497-7.497,7.49-19.635,0-27.125c-12.926-12.926-33.959-12.926-46.88-0.006
		L9.695,381.341c-12.927,12.927-12.926,33.959,0,46.886l74.078,74.078c12.926,12.926,33.959,12.927,46.886,0l140.757-140.757
		c12.92-12.92,12.92-33.953-0.006-46.88C263.92,307.178,251.782,307.171,244.285,314.668z"/>
	<path d="M381.347,9.689L240.589,150.447c-12.926,12.926-12.926,33.959,0,46.886c7.49,7.49,19.635,7.49,27.125,0
		c6.212-6.212,7.278-15.636,3.179-22.94l133.89-133.89l66.714,66.714l-133.89,133.89c-7.304-4.099-16.728-3.033-22.94,3.179
		c-7.49,7.49-7.49,19.635,0,27.125c12.926,12.926,33.959,12.926,46.886,0l140.758-140.758c12.92-12.92,12.92-33.952-0.007-46.879
		L428.226,9.696C415.3-3.231,394.267-3.231,381.347,9.689z"/>
	<path d="M130.102,381.898c7.49,7.49,19.642,7.483,27.125,0L380.625,158.5c7.497-7.497,7.49-19.635,0-27.125
		c-7.489-7.489-19.629-7.497-27.125,0L130.102,354.772C122.619,362.256,122.613,374.408,130.102,381.898z"/>
</g>
</svg>
