<?xml version="1.0" encoding="utf-8"?>
<!-- Generator: Adobe Illustrator 16.0.2, SVG Export Plug-In . SVG Version: 6.00 Build 0)  -->
<!DOCTYPE svg PUBLIC "-//W3C//DTD SVG 1.1//EN" "http://www.w3.org/Graphics/SVG/1.1/DTD/svg11.dtd">
<svg version="1.1" id="Layer_1" xmlns="http://www.w3.org/2000/svg" xmlns:xlink="http://www.w3.org/1999/xlink" x="0px" y="0px"
	 width="22px" height="66px" viewBox="0 0 22 66" enable-background="new 0 0 22 66" xml:space="preserve">
<g>
	<path fill="#2969BF" d="M10.587,35.062c-0.219,0.219-0.256,0.55-0.111,0.807l-4.708,4.705l-2.345-2.345l4.708-4.705
		c0.257,0.144,0.587,0.107,0.807-0.112c0.264-0.263,0.264-0.691,0-0.953c-0.454-0.455-1.194-0.455-1.648,0l-4.949,4.948
		c-0.455,0.455-0.455,1.193,0,1.648l2.605,2.604c0.454,0.454,1.194,0.454,1.649,0l4.95-4.948c0.453-0.454,0.453-1.193,0-1.648
		C11.278,34.799,10.851,34.799,10.587,35.062z"/>
	<path fill="#2969BF" d="M15.406,24.341l-4.949,4.948c-0.454,0.454-0.454,1.194,0,1.648c0.262,0.263,0.69,0.263,0.954,0
		c0.218-0.218,0.256-0.549,0.111-0.807l4.707-4.707l2.344,2.344l-4.707,4.707c-0.256-0.145-0.587-0.106-0.806,0.112
		c-0.264,0.263-0.264,0.691,0,0.954c0.455,0.455,1.193,0.455,1.649,0l4.948-4.949c0.455-0.453,0.455-1.193,0-1.647l-2.606-2.605
		C16.601,23.887,15.86,23.887,15.406,24.341z"/>
	<path fill="#2969BF" d="M6.573,37.426c0.263,0.263,0.691,0.263,0.955,0l7.854-7.854c0.264-0.264,0.264-0.691,0-0.955
		c-0.263-0.263-0.69-0.264-0.954,0l-7.855,7.854C6.31,36.734,6.31,37.162,6.573,37.426z"/>
</g>
<g>
	<path fill="#5D5D5D" d="M10.587,13.062c-0.219,0.219-0.256,0.55-0.111,0.806l-4.708,4.706l-2.345-2.345l4.708-4.706
		c0.257,0.144,0.587,0.107,0.807-0.111c0.264-0.263,0.264-0.691,0-0.953c-0.454-0.456-1.194-0.456-1.648,0l-4.949,4.948
		c-0.455,0.455-0.455,1.193,0,1.649l2.605,2.604c0.454,0.454,1.194,0.454,1.649,0l4.95-4.948c0.453-0.454,0.453-1.193,0-1.648
		C11.278,12.799,10.851,12.799,10.587,13.062z"/>
	<path fill="#5D5D5D" d="M15.406,2.341l-4.949,4.948c-0.454,0.454-0.454,1.194,0,1.648c0.262,0.263,0.69,0.263,0.954,0
		c0.218-0.218,0.256-0.549,0.111-0.807l4.707-4.707l2.344,2.344l-4.707,4.707c-0.256-0.145-0.587-0.106-0.806,0.112
		c-0.264,0.263-0.264,0.691,0,0.953c0.455,0.455,1.193,0.455,1.649,0l4.948-4.948c0.455-0.453,0.455-1.193,0-1.647L17.052,2.34
		C16.601,1.887,15.86,1.887,15.406,2.341z"/>
	<path fill="#5D5D5D" d="M6.573,15.426c0.263,0.263,0.691,0.263,0.955,0l7.854-7.854c0.264-0.264,0.264-0.691,0-0.955
		c-0.263-0.263-0.69-0.264-0.954,0l-7.855,7.854C6.31,14.734,6.31,15.162,6.573,15.426z"/>
</g>
<g>
	<path fill="#FFFFFF" d="M10.587,57.062c-0.219,0.219-0.256,0.55-0.111,0.807l-4.708,4.705l-2.345-2.345l4.708-4.705
		c0.257,0.144,0.587,0.107,0.807-0.111c0.264-0.264,0.264-0.692,0-0.954c-0.454-0.455-1.194-0.455-1.648-0.002l-4.949,4.95
		c-0.455,0.453-0.455,1.193,0,1.646l2.605,2.606c0.454,0.454,1.194,0.454,1.649,0l4.95-4.948c0.453-0.454,0.453-1.193,0-1.648
		C11.278,56.799,10.851,56.799,10.587,57.062z"/>
	<path fill="#FFFFFF" d="M15.406,46.341l-4.949,4.948c-0.454,0.454-0.454,1.193,0,1.647c0.262,0.263,0.69,0.263,0.954,0
		c0.218-0.218,0.256-0.549,0.111-0.806l4.707-4.707l2.344,2.345l-4.707,4.705c-0.256-0.144-0.587-0.106-0.806,0.113
		c-0.264,0.263-0.264,0.69,0,0.954c0.455,0.455,1.193,0.455,1.649,0l4.948-4.948c0.455-0.455,0.455-1.193,0-1.648l-2.606-2.605
		C16.601,45.887,15.86,45.887,15.406,46.341z"/>
	<path fill="#FFFFFF" d="M6.573,59.426c0.263,0.263,0.691,0.263,0.955,0l7.854-7.854c0.264-0.264,0.264-0.693,0-0.956
		c-0.263-0.264-0.69-0.264-0.954,0l-7.855,7.854C6.31,58.734,6.31,59.162,6.573,59.426z"/>
</g>
</svg>
