<?xml version="1.0" encoding="utf-8"?>
<!-- Generator: Adobe Illustrator 17.1.0, SVG Export Plug-In . SVG Version: 6.00 Build 0)  -->
<!DOCTYPE svg PUBLIC "-//W3C//DTD SVG 1.1//EN" "http://www.w3.org/Graphics/SVG/1.1/DTD/svg11.dtd">
<svg version="1.1" id="Layer_1" xmlns="http://www.w3.org/2000/svg" xmlns:xlink="http://www.w3.org/1999/xlink" x="0px" y="0px"
	 viewBox="0 0 512 512" enable-background="new 0 0 512 512" xml:space="preserve">
<path d="M385,115H12c-6.6,0-12,5.4-12,12v373c0,6.6,5.4,12,12,12h373c6.6,0,12-5.4,12-12V127C397,120.4,391.6,115,385,115z M380,483
	c0,6.1-4.9,11-11,11H27c-6.1,0-11-4.9-11-11V141c0-6.1,4.9-11,11-11h342c6.1,0,11,4.9,11,11V483z"/>
<polygon fill="#424242" points="23,133.4 245.3,489 512,0 423.1,0 245.3,274.1 67.4,133.4 "/>
</svg>
