<?xml version="1.0" encoding="utf-8"?>
<svg version="1.1" xmlns="http://www.w3.org/2000/svg" viewBox="0 0 512 2048" enable-background="new 0 0 512 2048" preserveAspectRatio="xMinYMin slice">
<path fill="#333333" d="M512,287.5v-64l-76.2-12.4c-4.5-18-11.6-35-20.9-50.5l44.4-63.3L414,52l-62.4,44.9
	c-15.6-9.4-32.6-16.6-50.8-21.1L287.5,0h-64l-12.3,75.6c-18.2,4.5-35.3,11.6-51,20.9L97.9,52L52.7,97.2l43.8,62.6
	C87,175.6,79.8,192.7,75.2,211L0,223.5v64l75.1,13.3c4.5,18.3,11.8,35.4,21.2,51.2L52,414l45.3,45.3l62.7-43.9
	c15.7,9.4,32.8,16.5,51,21l12.6,75.6h64l13.4-75.8c18.1-4.6,35.2-11.8,50.7-21.2l63.2,44.3L460,414l-45.1-62.6
	c9.3-15.6,16.4-32.5,20.9-50.6L512,287.5z M256,372.2c-64.3,0-116.4-52-116.4-116.2c0-64.2,52.1-116.2,116.4-116.2
	c64.3,0,116.4,52,116.4,116.2C372.4,320.2,320.3,372.2,256,372.2z"/>
<path fill="#b6c0c6" d="M512,799.5v-64l-76.2-12.4c-4.5-18-11.6-35-20.9-50.5l44.4-63.3L414,564l-62.4,44.9
	c-15.6-9.4-32.6-16.6-50.8-21.1L287.5,512h-64l-12.3,75.6c-18.2,4.5-35.3,11.6-51,20.9L97.9,564l-45.3,45.2l43.8,62.6
	C87,687.6,79.8,704.7,75.2,723L0,735.5v64l75.1,13.3c4.5,18.3,11.8,35.4,21.2,51.2L52,926l45.3,45.3l62.7-43.9
	c15.7,9.4,32.8,16.5,51,21l12.6,75.6h64l13.4-75.8c18.1-4.6,35.2-11.8,50.7-21.2l63.2,44.3L460,926l-45.1-62.6
	c9.3-15.6,16.4-32.5,20.9-50.6L512,799.5z M256,884.2c-64.3,0-116.4-52-116.4-116.2c0-64.2,52.1-116.2,116.4-116.2
	c64.3,0,116.4,52,116.4,116.2C372.4,832.2,320.3,884.2,256,884.2z"/>
<path fill="#0064ad" d="M512,1311.5v-64l-76.2-12.4c-4.5-18-11.6-35-20.9-50.5l44.4-63.3L414,1076l-62.4,44.9
	c-15.6-9.4-32.6-16.6-50.8-21.1l-13.3-75.8h-64l-12.3,75.6c-18.2,4.5-35.3,11.6-51,20.9L97.9,1076l-45.3,45.2l43.8,62.6
	c-9.5,15.7-16.7,32.8-21.2,51.1L0,1247.5v64l75.1,13.3c4.5,18.3,11.8,35.4,21.2,51.2L52,1438l45.3,45.3l62.7-43.9
	c15.7,9.4,32.8,16.5,51,21l12.6,75.6h64l13.4-75.8c18.1-4.6,35.2-11.8,50.7-21.2l63.2,44.3L460,1438l-45.1-62.6
	c9.3-15.6,16.4-32.5,20.9-50.6L512,1311.5z M256,1396.2c-64.3,0-116.4-52-116.4-116.2c0-64.2,52.1-116.2,116.4-116.2
	c64.3,0,116.4,52,116.4,116.2C372.4,1344.2,320.3,1396.2,256,1396.2z"/>
</svg>
