<?xml version="1.0" encoding="utf-8"?>
<!-- Generator: Adobe Illustrator 16.0.2, SVG Export Plug-In . SVG Version: 6.00 Build 0)  -->
<!DOCTYPE svg PUBLIC "-//W3C//DTD SVG 1.1//EN" "http://www.w3.org/Graphics/SVG/1.1/DTD/svg11.dtd">
<svg version="1.1" id="Lager_1" xmlns="http://www.w3.org/2000/svg" xmlns:xlink="http://www.w3.org/1999/xlink" x="0px" y="0px"
	 width="22px" height="66px" viewBox="0 0 22 66" enable-background="new 0 0 22 66" xml:space="preserve">
<polygon fill="#333333" points="8.289,16.638 4.754,17.246 5.361,13.711 "/>
<polygon fill="#333333" points="2,20 2.871,4.7 16.26,7.313 12.619,12.643 11.76,12.083 14.545,8.007 3.836,5.917 3.1,18.839 
	14.53,17.353 14.668,18.35 "/>
<polygon fill="#333333" points="15.437,17.93 14.492,18.326 11.864,12.26 12.809,11.864 "/>
<rect x="11.342" y="1.341" transform="matrix(0.7072 0.707 -0.707 0.7072 9.9981 -6.9684)" fill="#333333" width="4.141" height="14.492"/>
<polygon fill="#3C63AD" points="8.289,38.639 4.754,39.246 5.361,35.711 "/>
<polygon fill="#3C63AD" points="2,42 2.871,26.7 16.26,29.313 12.619,34.643 11.76,34.084 14.545,30.007 3.836,27.917 3.1,40.84 
	14.53,39.353 14.668,40.35 "/>
<polygon fill="#3C63AD" points="15.437,39.93 14.492,40.326 11.864,34.26 12.809,33.864 "/>
<rect x="11.342" y="23.341" transform="matrix(0.7072 0.707 -0.707 0.7072 25.5518 -0.5273)" fill="#3C63AD" width="4.141" height="14.492"/>
<polygon fill="#FFFFFF" points="8.289,60.705 4.754,61.313 5.361,57.777 "/>
<polygon fill="#FFFFFF" points="2,64.066 2.871,48.767 16.26,51.38 12.619,56.709 11.76,56.15 14.545,52.073 3.836,49.982 
	3.1,62.906 14.53,61.419 14.668,62.416 "/>
<polygon fill="#FFFFFF" points="15.437,61.996 14.492,62.393 11.864,56.326 12.809,55.93 "/>
<rect x="11.342" y="45.408" transform="matrix(0.7072 0.707 -0.707 0.7072 41.1525 5.9332)" fill="#FFFFFF" width="4.141" height="14.492"/>
</svg>
