<?xml version="1.0" encoding="utf-8"?>
<!-- Generator: Adobe Illustrator 16.0.2, SVG Export Plug-In . SVG Version: 6.00 Build 0)  -->
<!DOCTYPE svg PUBLIC "-//W3C//DTD SVG 1.1//EN" "http://www.w3.org/Graphics/SVG/1.1/DTD/svg11.dtd">
<svg version="1.1" id="Lager_1" xmlns="http://www.w3.org/2000/svg" xmlns:xlink="http://www.w3.org/1999/xlink" x="0px" y="0px"
	 width="22px" height="66px" viewBox="0 0 22 66" enable-background="new 0 0 22 66" xml:space="preserve">
<polygon fill="#333333" points="11.736,12.897 8.041,13.487 8.674,10.048 "/>
<polygon fill="#333333" points="17.938,1 21,3.849 12.273,11.976 9.21,9.126 "/>
<text transform="matrix(1.0744 0 0 1 1.0195 19.083)" fill="#333333" font-family="'ArialMT'" font-size="12.0619">A</text>
<polygon fill="#3366CC" points="11.736,34.896 8.041,35.486 8.674,32.048 "/>
<polygon fill="#3366CC" points="17.938,23 21,25.849 12.273,33.975 9.21,31.126 "/>
<text transform="matrix(1.0744 0 0 1 1.0195 41.083)" fill="#3366CC" font-family="'ArialMT'" font-size="12.0619">A</text>
<polygon fill="#FFFFFF" points="11.736,56.896 8.041,57.486 8.674,54.047 "/>
<polygon fill="#FFFFFF" points="17.938,45 21,47.85 12.273,55.975 9.21,53.127 "/>
<text transform="matrix(1.0744 0 0 1 1.0195 63.083)" fill="#FFFFFF" font-family="'ArialMT'" font-size="12.0619">A</text>
</svg>
