<?xml version="1.0" encoding="utf-8"?>
<!-- Generator: Adobe Illustrator 16.0.2, SVG Export Plug-In . SVG Version: 6.00 Build 0)  -->
<!DOCTYPE svg PUBLIC "-//W3C//DTD SVG 1.1//EN" "http://www.w3.org/Graphics/SVG/1.1/DTD/svg11.dtd">
<svg version="1.1" id="Lager_1" xmlns="http://www.w3.org/2000/svg" xmlns:xlink="http://www.w3.org/1999/xlink" x="0px" y="0px"
	 width="22px" height="66px" viewBox="0 0 22 66" enable-background="new 0 0 22 66" xml:space="preserve">
<polygon fill="#333333" points="11.726,13.792 8.028,14.427 8.662,10.728 "/>
<rect x="12.932" y="0.722" transform="matrix(0.7073 0.7069 -0.7069 0.7073 9.2968 -8.6542)" fill="#333333" width="4.334" height="12.356"/>
<text transform="matrix(1 0 0 1 1 18.2944)" fill="#333333" font-family="'Myriad-Roman'" font-size="12.9713">A</text>
<polygon fill="#3C63AD" points="11.726,37.145 8.028,37.779 8.662,34.08 "/>
<rect x="12.933" y="24.074" transform="matrix(0.7074 0.7068 -0.7068 0.7074 25.8015 -1.8206)" fill="#3C63AD" width="4.334" height="12.356"/>
<text transform="matrix(1 0 0 1 1 41.6465)" fill="#3C63AD" font-family="'Myriad-Roman'" font-size="12.9713">A</text>
<polygon fill="#FFFFFF" points="11.726,60.005 8.028,60.64 8.662,56.94 "/>
<rect x="12.933" y="46.935" transform="matrix(0.7074 0.7068 -0.7068 0.7074 41.9598 4.8686)" fill="#FFFFFF" width="4.334" height="12.356"/>
<text transform="matrix(1 0 0 1 1 64.5078)" fill="#FFFFFF" font-family="'Myriad-Roman'" font-size="12.9713">A</text>
</svg>
