<?xml version="1.0" encoding="utf-8"?>
<!-- Generator: Adobe Illustrator 16.0.2, SVG Export Plug-In . SVG Version: 6.00 Build 0)  -->
<!DOCTYPE svg PUBLIC "-//W3C//DTD SVG 1.1//EN" "http://www.w3.org/Graphics/SVG/1.1/DTD/svg11.dtd">
<svg version="1.1" id="Lager_1" xmlns="http://www.w3.org/2000/svg" xmlns:xlink="http://www.w3.org/1999/xlink" x="0px" y="0px"
	 width="22px" height="66px" viewBox="0 0 22 66" enable-background="new 0 0 22 66" xml:space="preserve">
<polygon fill="#333333" points="17.768,8.884 13.129,7.116 15.361,2 20,3.769 "/>
<path fill="#333333" d="M13.533,8.009l3.266,1.246l-0.783,1.698h-3.75L13.533,8.009z M13.129,7.115l-1.948,4.523h5.315l1.271-2.754
	L13.129,7.115z"/>
<path fill="#333333" d="M5.207,9.243H2.645v0.579h2.561l-0.005,6.592H3.282v0.579h1.922v-0.579h0.635V9.243H5.207z M2.004,12.829H2
	v0.579h0.004v3.604h0.639v-1.811H3.92v-0.581H2.644v-1.213h1.278v-0.579H2.644v-1.196h1.274l0.002-0.579H2.644l0.001-1.812H2.004
	V12.829z"/>
<path fill="#333333" d="M5.826,9.243L5.375,9.665l7.674,7.176l0.453-0.423L5.826,9.243z M9.457,14.327l-1.329,1.242L7.21,14.711
	l0.877-0.82l-0.438-0.41l-0.876,0.82l-0.918-0.86l1.328-1.241l-0.438-0.41l-1.359,1.271l0.292,0.271l-0.421,0.395l3.337,3.115
	l0.447-0.419l-0.475-0.445l1.329-1.243L9.457,14.327z"/>
<path fill="#333333" d="M13.512,17.013v-0.599H2.643v0.598L13.512,17.013z M12.893,17.013v2.396l-7.053-0.004V17.61H5.22v1.794
	l-2.597-0.001l0.02-2.989H2.004v2.988V20h11.508v-0.592v-2.396H12.893z M3.902,18.205h-0.62v1.197h0.62V18.205z M7.758,18.207h-0.62
	v1.197h0.62V18.207z M9.675,17.61h-0.62v1.796h0.62V17.61z M11.573,18.207h-0.618v1.195l0.618,0.002V18.207z"/>
<polygon fill="#3C63AD" points="17.768,30.884 13.129,29.116 15.361,24 20,25.769 "/>
<path fill="#3C63AD" d="M13.533,30.009l3.266,1.246l-0.783,1.698h-3.75L13.533,30.009z M13.129,29.115l-1.948,4.523h5.315
	l1.271-2.754L13.129,29.115z"/>
<path fill="#3C63AD" d="M5.207,31.243H2.645v0.579h2.561l-0.005,6.592H3.282v0.579h1.922v-0.579h0.635v-7.171H5.207z M2.004,34.829
	H2v0.579h0.004v3.604h0.639v-1.811H3.92v-0.58H2.644v-1.213h1.278v-0.579H2.644v-1.196h1.274l0.002-0.579H2.644l0.001-1.812H2.004
	V34.829z"/>
<path fill="#3C63AD" d="M5.826,31.243l-0.452,0.422l7.674,7.176l0.453-0.423L5.826,31.243z M9.457,36.327l-1.329,1.242L7.21,36.711
	l0.877-0.82l-0.438-0.409l-0.876,0.82l-0.918-0.86l1.328-1.24l-0.438-0.41l-1.359,1.271l0.292,0.271l-0.421,0.395l3.337,3.115
	l0.447-0.419l-0.475-0.445l1.329-1.243L9.457,36.327z"/>
<path fill="#3C63AD" d="M13.512,39.013v-0.599H2.643v0.598L13.512,39.013z M12.893,39.013v2.396l-7.053-0.004V39.61H5.22v1.794
	l-2.597-0.002l0.02-2.988H2.004v2.988V42h11.508v-0.592v-2.396H12.893z M3.902,40.205h-0.62v1.197h0.62V40.205z M7.758,40.207h-0.62
	v1.197h0.62V40.207z M9.675,39.61h-0.62v1.796h0.62V39.61z M11.573,40.207h-0.618v1.195l0.618,0.002V40.207z"/>
<polygon fill="#FFFFFF" points="17.768,52.885 13.129,51.115 15.361,46 20,47.77 "/>
<path fill="#FFFFFF" d="M13.533,52.008l3.266,1.246l-0.783,1.699h-3.75L13.533,52.008z M13.129,51.115l-1.948,4.523h5.315
	l1.271-2.756L13.129,51.115z"/>
<path fill="#FFFFFF" d="M5.207,53.242H2.645v0.58h2.561l-0.005,6.592H3.282v0.578h1.922v-0.578h0.635v-7.172H5.207z M2.004,56.828H2
	v0.58h0.004v3.604h0.639v-1.811H3.92v-0.58H2.644v-1.213h1.278v-0.58H2.644v-1.195h1.274l0.002-0.578H2.644l0.001-1.813H2.004
	V56.828z"/>
<path fill="#FFFFFF" d="M5.826,53.242l-0.452,0.422l7.674,7.176l0.453-0.422L5.826,53.242z M9.457,58.326l-1.329,1.242L7.21,58.711
	l0.877-0.82l-0.438-0.41l-0.876,0.82l-0.918-0.859l1.328-1.24l-0.438-0.41l-1.359,1.271l0.292,0.271l-0.421,0.395l3.337,3.115
	l0.447-0.42l-0.475-0.445l1.329-1.242L9.457,58.326z"/>
<path fill="#FFFFFF" d="M13.512,61.012v-0.598H2.643v0.598H13.512z M12.893,61.012v2.396l-7.053-0.004v-1.795H5.22v1.795
	l-2.597-0.002l0.02-2.988H2.004v2.988V64h11.508v-0.592v-2.396H12.893z M3.902,62.205h-0.62v1.197h0.62V62.205z M7.758,62.207h-0.62
	v1.197h0.62V62.207z M9.675,61.609h-0.62v1.797h0.62V61.609z M11.573,62.207h-0.618v1.195l0.618,0.002V62.207z"/>
</svg>
