<?xml version="1.0" encoding="utf-8"?>
<!-- Generator: Adobe Illustrator 17.1.0, SVG Export Plug-In . SVG Version: 6.00 Build 0)  -->
<!DOCTYPE svg PUBLIC "-//W3C//DTD SVG 1.1//EN" "http://www.w3.org/Graphics/SVG/1.1/DTD/svg11.dtd">
<svg version="1.1" id="Layer_1" xmlns="http://www.w3.org/2000/svg" xmlns:xlink="http://www.w3.org/1999/xlink" x="0px" y="0px"
	 width="512px" height="512px" viewBox="0 0 512 512" enable-background="new 0 0 512 512" xml:space="preserve">
<path fill="none" stroke="#000000" stroke-width="30" stroke-linecap="round" stroke-linejoin="round" stroke-miterlimit="10" d="
	M472.6,39.4"/>
<path fill="none" stroke="#000000" stroke-width="30" stroke-linecap="round" stroke-linejoin="round" stroke-miterlimit="10" d="
	M39.5,472.5"/>
<g>
	<path d="M260.6,86.1c-1.5,0-3-0.1-4.6-0.1c-1.6,0-3,0-4.6,0.1C112.2,89.6,0,256,0,256s112.2,166.4,251.4,169.9c1.5,0,3,0.1,4.6,0.1
		c1.6,0,3,0,4.6-0.1C399.8,422.4,512,256,512,256S399.8,89.6,260.6,86.1z M408.3,309.5c-23.6,21.6-47.3,38.9-70.6,51.2
		c-27.1,14.4-53.4,22-78.2,22.6l-1,0l-0.9,0.1c-0.3,0-1,0-1.6,0c-0.3,0-0.6,0-0.8,0c-0.8,0-1.9-0.1-3.1-0.1
		c-24.7-0.7-50.9-8.3-77.8-22.6c-23.3-12.3-47-29.5-70.6-51.2c-21.1-19.4-38.4-38.9-50.3-53.5c11.9-14.6,29.1-34.1,50.3-53.5
		c23.6-21.6,47.3-38.9,70.6-51.2c27.1-14.4,53.4-22,78.2-22.6l1,0l0.9-0.1c0.3,0,1,0,1.6,0c0.3,0,0.6,0,0.8,0c0.8,0,1.9,0.1,3.1,0.1
		c24.7,0.7,50.9,8.3,77.8,22.6c23.3,12.3,47,29.5,70.6,51.2c21.1,19.4,38.4,38.9,50.3,53.5C446.7,270.6,429.4,290.1,408.3,309.5z"/>
	<path d="M256,183.7c-10.4,0-20.4,2.2-29.6,6.3c0.5,0.4,0.9,0.8,1.3,1.2c4.9,4.9,7.5,11.3,7.5,18.2s-2.7,13.3-7.5,18.2
		c-4.9,4.9-11.3,7.5-18.2,7.5s-13.3-2.7-18.2-7.5c-0.4-0.4-0.8-0.9-1.2-1.3c-4.1,9.2-6.3,19.2-6.3,29.6c0,19.3,7.5,37.5,21.1,51.1
		c13.7,13.6,31.8,21.1,51.1,21.1s37.5-7.5,51.1-21.1c13.6-13.7,21.1-31.8,21.1-51.1s-7.5-37.5-21.1-51.1
		C293.5,191.3,275.3,183.7,256,183.7z"/>
</g>
</svg>
