<?xml version="1.0" encoding="utf-8"?>
<!-- Generator: Adobe Illustrator 17.1.0, SVG Export Plug-In . SVG Version: 6.00 Build 0)  -->
<!DOCTYPE svg PUBLIC "-//W3C//DTD SVG 1.1//EN" "http://www.w3.org/Graphics/SVG/1.1/DTD/svg11.dtd">
<svg version="1.1" id="Layer_1" xmlns="http://www.w3.org/2000/svg" xmlns:xlink="http://www.w3.org/1999/xlink" x="0px" y="0px"
	 width="512px" height="512px" viewBox="0 0 512 512" enable-background="new 0 0 512 512" xml:space="preserve">
<g>
	<path d="M171.2,277.7H61.9c-34.8,0-63,28.2-63,63V449c0,34.8,28.2,63,63,63h109.3c34.8,0,63-28.2,63-63V340.7
		C234.2,305.9,206,277.7,171.2,277.7z"/>
	<path d="M450.1,277.7H340.8c-34.8,0-63,28.2-63,63V449c0,34.8,28.2,63,63,63h109.3c34.8,0,63-28.2,63-63V340.7
		C513.1,305.9,484.9,277.7,450.1,277.7z"/>
	<path d="M171.2,0H61.9c-34.8,0-63,28.2-63,63v108.3c0,34.8,28.2,63,63,63h109.3c34.8,0,63-28.2,63-63V63C234.2,28.2,206,0,171.2,0z
		"/>
	<path d="M450.1,0H340.8c-34.8,0-63,28.2-63,63v108.3c0,34.8,28.2,63,63,63h109.3c34.8,0,63-28.2,63-63V63
		C513.1,28.2,484.9,0,450.1,0z"/>
</g>
</svg>
