<?xml version="1.0" encoding="utf-8"?>
<!-- Generator: Adobe Illustrator 17.1.0, SVG Export Plug-In . SVG Version: 6.00 Build 0)  -->
<!DOCTYPE svg PUBLIC "-//W3C//DTD SVG 1.1//EN" "http://www.w3.org/Graphics/SVG/1.1/DTD/svg11.dtd">
<svg version="1.1" id="Layer_1" xmlns="http://www.w3.org/2000/svg" xmlns:xlink="http://www.w3.org/1999/xlink" x="0px" y="0px"
	 width="512px" height="512px" viewBox="0 0 512 512" enable-background="new 0 0 512 512" xml:space="preserve">
<circle fill="#424242" cx="251.1" cy="372.4" r="33.1"/>
<path fill="#424242" d="M280.6,307.8h-67.5c-10.5-73.6,66-66.9,66-107.2c0-22-14.2-33.9-35.1-33.9c-19.4,0-33.5,10.2-47.6,24.7
	l-42.4-39.8c23.5-29,56.5-48.9,95.3-48.9c59.2,0,103.7,28.5,103.7,91.9C352.9,261.3,274.3,243.8,280.6,307.8z"/>
<path fill="#424242" d="M256,40.9c118.6,0,215.1,96.5,215.1,215.1S374.6,471.1,256,471.1S40.9,374.6,40.9,256S137.4,40.9,256,40.9
	 M256,0C114.6,0,0,114.6,0,256s114.6,256,256,256s256-114.6,256-256S397.4,0,256,0L256,0z"/>
</svg>
