<?xml version="1.0" encoding="utf-8"?>
<!-- Generator: Adobe Illustrator 17.1.0, SVG Export Plug-In . SVG Version: 6.00 Build 0)  -->
<!DOCTYPE svg PUBLIC "-//W3C//DTD SVG 1.1//EN" "http://www.w3.org/Graphics/SVG/1.1/DTD/svg11.dtd">
<svg version="1.1" id="Layer_1" xmlns="http://www.w3.org/2000/svg" xmlns:xlink="http://www.w3.org/1999/xlink" x="0px" y="0px"
	 width="512px" height="512px" viewBox="0 0 512 512" enable-background="new 0 0 512 512" xml:space="preserve">
<path d="M389.9,133.2l70.5-85.4L421.8,16L346,107.8c-26.7-12.6-55.4-20.9-85.4-21.7c-1.5,0-3-0.1-4.6-0.1c-1.6,0-3,0-4.6,0.1
	C112.2,89.6,0,256,0,256s49,72.6,122.3,122.9l-70.7,85.7l38.6,31.8l76-92.1c26.6,12.5,55.3,20.8,85.2,21.6c1.5,0,3,0.1,4.6,0.1
	c1.6,0,3,0,4.6-0.1C399.8,422.4,512,256,512,256S463.1,183.5,389.9,133.2z M103.7,309.5c-21.1-19.4-38.4-38.9-50.3-53.5
	c11.9-14.6,29.1-34.1,50.3-53.5c23.6-21.6,47.3-38.9,70.6-51.2c27.1-14.4,53.4-22,78.2-22.6h1l0.9-0.1c0.3,0,1,0,1.6,0
	c0.3,0,0.6,0,0.8,0c0.8,0,1.9,0.1,3.1,0.1c18.6,0.5,38,5,58,13.2L280,187.8c-7.6-2.7-15.7-4.1-24-4.1c-10.4,0-20.4,2.2-29.6,6.3
	c0.5,0.4,0.9,0.8,1.3,1.2c4.9,4.9,7.5,11.3,7.5,18.2c0,6.9-2.7,13.3-7.5,18.2c-4.9,4.9-11.3,7.5-18.2,7.5c-6.9,0-13.3-2.7-18.2-7.5
	c-0.4-0.4-0.8-0.9-1.2-1.3c-4.1,9.2-6.3,19.2-6.3,29.6c0,13.1,3.4,25.6,9.9,36.6l-44.1,53.4C134.3,335.7,119,323.6,103.7,309.5z
	 M408.3,309.5c-23.6,21.6-47.3,38.9-70.6,51.2c-27.1,14.4-53.4,22-78.2,22.6h-1l-0.9,0.1c-0.3,0-1,0-1.6,0c-0.3,0-0.6,0-0.8,0
	c-0.8,0-1.9-0.1-3.1-0.1c-18.5-0.5-37.9-4.9-57.7-13.1l38-46c7.5,2.6,15.5,4,23.7,4c19.3,0,37.5-7.5,51.1-21.1
	c13.6-13.7,21.1-31.8,21.1-51.1c0-12.9-3.4-25.3-9.7-36.2l44.1-53.5c15.2,10.1,30.4,22.3,45.7,36.3c21.1,19.4,38.4,38.9,50.3,53.5
	C446.7,270.6,429.4,290.1,408.3,309.5z"/>
</svg>
