<?xml version="1.0" encoding="utf-8"?>
<!-- Generator: Adobe Illustrator 18.0.0, SVG Export Plug-In . SVG Version: 6.00 Build 0)  -->
<!DOCTYPE svg PUBLIC "-//W3C//DTD SVG 1.1//EN" "http://www.w3.org/Graphics/SVG/1.1/DTD/svg11.dtd">
<svg version="1.1" id="Layer_1" xmlns="http://www.w3.org/2000/svg" xmlns:xlink="http://www.w3.org/1999/xlink" x="0px" y="0px"
	 width="512px" height="512px" viewBox="0 0 512 512" style="enable-background:new 0 0 512 512;" xml:space="preserve">
<style type="text/css">
	.st0{fill:#602524;}
</style>
<g>
	<path d="M256.87,494.675c16.843-1.686,31.157-10.117,42.099-23.587l12.628,10.117
		c-16,19.354-37.883,30.296-63.157,30.296c-52.197,0-80.825-29.453-80.825-69.865c0-26.099,7.587-56.412,13.471-91.784
		l29.957-142.387h-35.354l1.686-15.157h36.197c64.825,0,103.569-7.587,103.569-7.587L256.87,494.675z M282.612-0.5
		c33.686,0,61.471,27.785,61.471,61.453c0,33.686-27.785,60.628-61.471,60.628c-33.668,0-60.61-26.942-60.61-60.628
		C222.003,27.285,248.944-0.5,282.612-0.5z"/>
</g>
</svg>
