<?xml version="1.0" encoding="utf-8"?>
<!-- Generator: Adobe Illustrator 17.1.0, SVG Export Plug-In . SVG Version: 6.00 Build 0)  -->
<!DOCTYPE svg PUBLIC "-//W3C//DTD SVG 1.1//EN" "http://www.w3.org/Graphics/SVG/1.1/DTD/svg11.dtd">
<svg version="1.1" id="Layer_1" xmlns="http://www.w3.org/2000/svg" xmlns:xlink="http://www.w3.org/1999/xlink" x="0px" y="0px"
	 viewBox="0 0 512 512" enable-background="new 0 0 512 512" xml:space="preserve">
<g>
	<g>
		<path fill="#8E0E0E" d="M46.5,25.6C20.8,25.6,0,46.2,0,71.7c0,25.4,20.8,46.1,46.5,46.1c25.7,0,46.5-20.6,46.5-46.1
			C93.1,46.2,72.2,25.6,46.5,25.6z M46.5,209.9C20.8,209.9,0,230.5,0,256c0,25.5,20.8,46.1,46.5,46.1c25.7,0,46.5-20.6,46.5-46.1
			C93.1,230.5,72.2,209.9,46.5,209.9z M46.5,394.2C20.8,394.2,0,414.9,0,440.3c0,25.5,20.8,46.1,46.5,46.1
			c25.7,0,46.5-20.6,46.5-46.1C93.1,414.9,72.2,394.2,46.5,394.2z M192.8,117.8h266c29.4,0,53.2-20.6,53.2-46.1
			c0-25.4-23.8-46.1-53.2-46.1h-266c-29.4,0-53.2,20.6-53.2,46.1C139.6,97.1,163.4,117.8,192.8,117.8z M458.8,209.9h-266
			c-29.4,0-53.2,20.6-53.2,46.1c0,25.5,23.8,46.1,53.2,46.1h266c29.4,0,53.2-20.6,53.2-46.1C512,230.5,488.2,209.9,458.8,209.9z
			 M458.8,394.2h-266c-29.4,0-53.2,20.6-53.2,46.1c0,25.5,23.8,46.1,53.2,46.1h266c29.4,0,53.2-20.6,53.2-46.1
			C512,414.9,488.2,394.2,458.8,394.2z"/>
	</g>
</g>
</svg>
