<?xml version="1.0" encoding="utf-8"?>
<!-- Generator: Adobe Illustrator 17.1.0, SVG Export Plug-In . SVG Version: 6.00 Build 0)  -->
<!DOCTYPE svg PUBLIC "-//W3C//DTD SVG 1.1//EN" "http://www.w3.org/Graphics/SVG/1.1/DTD/svg11.dtd">
<svg version="1.1" id="Layer_1" xmlns="http://www.w3.org/2000/svg" xmlns:xlink="http://www.w3.org/1999/xlink" x="0px" y="0px"
	 width="512px" height="512px" viewBox="0 0 512 512" enable-background="new 0 0 512 512" xml:space="preserve">
<path d="M432,232h-32v-88C400,64.8,335.2,0,256,0S112,64.8,112,144v88H80c-8.8,0-16,7.2-16,16v248c0,8.8,7.2,16,16,16h352
	c8.8,0,16-7.2,16-16V248C448,239.2,440.8,232,432,232z M160,144c0-52.8,43.2-96,96-96s96,43.2,96,96v88H160V144z M296,448h-80
	l22.4-68c-12.8-6.4-22.4-20-22.4-36c0-22.4,17.6-40,40-40s40,17.6,40,40c0,16-9.6,29.6-22.4,36L296,448z"/>
</svg>
