<?xml version="1.0" encoding="utf-8"?>
<!-- Generator: Adobe Illustrator 17.1.0, SVG Export Plug-In . SVG Version: 6.00 Build 0)  -->
<!DOCTYPE svg PUBLIC "-//W3C//DTD SVG 1.1//EN" "http://www.w3.org/Graphics/SVG/1.1/DTD/svg11.dtd">
<svg version="1.1" id="Layer_1" xmlns="http://www.w3.org/2000/svg" xmlns:xlink="http://www.w3.org/1999/xlink" x="0px" y="0px"
	 viewBox="0 0 512 512" enable-background="new 0 0 512 512" xml:space="preserve">
<path fill="#160909" d="M150.6,180.3l-39.1,13.6C50,217.2,8.2,283.2,1.8,346.3c-5.8,70.5,31.7,131.8,92.6,164
	c1.1,0.6,2.3,1.1,3.4,1.7h279.1c-58.4-57.1-160.8-56.2-233.1-89.8c-30.7-12.3-62-42.7-62.3-79.2c-0.4-37.9,14.7-68.5,45.7-90
	c12.4-8.1,26.2-8.9,26.2-8.9c-25.1,26.3-40.6,56.4-36.3,94.8c3.3,30.9,29.9,60.9,59.2,69.8c28.9,8,54.7-3.7,76.1-20.3l-2.5-13.2
	c-12.3,3.4-28.7,3.5-41.2,0.3c-25.8-9.3-35.3-35-33.2-61.1c2.1-11.2,11-19,23.7-15.6c63.5,26.5,52,111.9,112.1,141.9
	c20,7.4,38.7,0.7,51.3-8.2c31.4-22.4,42.7-51.8,51.3-87.4c-16.9,19.3-32.3,39.9-57.2,44.6c-12.4,2.8-18.9,0.2-26.2-10.9
	c-24.5-39.4-32.3-105.3-90-111.2c-11.1,0.2-14.2-1-34.8,2.4c14.6-12.1,32.3-24,52-24.3c28.9-1,58.4,18.9,69.8,38.9
	c5.8,10.9,3.9,29-3.9,39.5l13.2,10c21.8-28.3,68.2-64.5,67.8-88.4c-3.8-46.6-73.4-74.7-114.5-91.3c0,0,7.1-18.5,3.5-32
	c-8-18.6-24.9-21.4-41.4-26.1c-30-8.6-78.4-12.5-100.4-32.2c-22.2-20-11.9-41.3-6.6-63.8C87.5,62.6,84.5,70.8,84.5,70.8
	S67.2,101.7,98,110.5c38.9,9.8,80.7,16.1,119.8,31.9c11,4.1-1,14.6-8.3,14.4C142,138,77.5,114.6,0,117.8c17.3,21.1,43,50,48.6,78.7
	C75.6,174.7,117.6,162.6,150.6,180.3z M265.8,168.4c6.8,3.4,14,10.8,17.4,17.4l-62.9-10.3C232.6,166.5,251.1,159.1,265.8,168.4z"/>
</svg>
