<?xml version="1.0" encoding="utf-8"?>
<!-- Generator: Adobe Illustrator 17.1.0, SVG Export Plug-In . SVG Version: 6.00 Build 0)  -->
<!DOCTYPE svg PUBLIC "-//W3C//DTD SVG 1.1//EN" "http://www.w3.org/Graphics/SVG/1.1/DTD/svg11.dtd">
<svg version="1.1" id="Layer_1" xmlns="http://www.w3.org/2000/svg" xmlns:xlink="http://www.w3.org/1999/xlink" x="0px" y="0px"
	 viewBox="0 0 512 512" enable-background="new 0 0 512 512" xml:space="preserve">
<g>
	<g>
		<path fill-rule="evenodd" clip-rule="evenodd" fill="#424242" d="M256.1,0C256.1,0,256.1,0,256.1,0C256.1,0,256.1,0,256.1,0
			L256.1,0z M452.7,348.7c-15.1-16.1-65.5-82.8-65.5-185.8c0-117.5-81.2-151.7-81.2-151.7S285,0,256.1,0
			c-28.9,0-49.8,11.3-49.8,11.3s-81.2,34.1-81.2,151.7c0,100-50.5,169.6-65.5,185.8C30.3,380,33.1,458,77.2,458h124.7
			c0,29.8,24.3,54,54.2,54c30,0,54.2-24.2,54.2-54H435C481.6,458,481.9,380,452.7,348.7z"/>
	</g>
</g>
</svg>
