<?xml version="1.0" encoding="utf-8"?>
<!-- Generator: Adobe Illustrator 17.1.0, SVG Export Plug-In . SVG Version: 6.00 Build 0)  -->
<!DOCTYPE svg PUBLIC "-//W3C//DTD SVG 1.1//EN" "http://www.w3.org/Graphics/SVG/1.1/DTD/svg11.dtd">
<svg version="1.1" id="Layer_1" xmlns="http://www.w3.org/2000/svg" xmlns:xlink="http://www.w3.org/1999/xlink" x="0px" y="0px"
	 width="512px" height="512px" viewBox="0 0 512 512" enable-background="new 0 0 512 512" xml:space="preserve">
<g>
	<path fill="#B6C0C6" d="M21.6,512v-98.8c0-73.2,56.9-86.2,107.3-97.7c15.3-3.4,31.3-7,46.6-12.5c3.6-1.4,11.3-6.6,6.3-21.9
		c-37.1-37.8-60.1-92.9-60.1-144.8C121.7,42.1,188.9,0,255.5,0c79,0,134.2,56,134.2,136.2c0,50.5-23.1,106.5-59.4,144
		c-3.9,13.3-2,21.1,1.7,22.7c15.2,4.8,31,8.3,46.3,11.6c52.5,11.4,112.1,24.4,112.1,98.7V512H21.6z"/>
</g>
</svg>
