<?xml version="1.0" encoding="utf-8"?>
<!-- Generator: Adobe Illustrator 18.0.0, SVG Export Plug-In . SVG Version: 6.00 Build 0)  -->
<!DOCTYPE svg PUBLIC "-//W3C//DTD SVG 1.1//EN" "http://www.w3.org/Graphics/SVG/1.1/DTD/svg11.dtd">
<svg version="1.1" id="Layer_1" xmlns="http://www.w3.org/2000/svg" xmlns:xlink="http://www.w3.org/1999/xlink" x="0px" y="0px"
	 width="512px" height="512px" viewBox="0 0 512 512" enable-background="new 0 0 512 512" xml:space="preserve">
<g>
	<g>
		<path fill="#0E0A0F" d="M97.183,510.295C43.587,510.295,0,466.708,0,413.111s43.587-97.183,97.183-97.183
			s97.183,43.587,97.183,97.183S150.78,510.295,97.183,510.295z M97.183,362.518c-27.89,0-50.594,22.703-50.594,50.594
			c0,27.89,22.703,50.594,50.594,50.594s50.594-22.703,50.594-50.594C147.777,385.221,125.073,362.518,97.183,362.518z"/>
	</g>
</g>
<g>
	<path fill="#0E0A0F" d="M325.39,511.164c-18.031,0-32.648-14.617-32.648-32.648c0-142.495-115.927-258.422-258.422-258.422
		c-18.031,0-32.648-14.617-32.648-32.648s14.617-32.648,32.648-32.648c178.499,0,323.717,145.218,323.717,323.717
		C358.038,496.547,343.421,511.164,325.39,511.164z"/>
</g>
<g>
	<path fill="#0E0A0F" d="M479.352,511.164c-18.031,0-32.648-14.617-32.648-32.648c0-227.39-184.995-412.385-412.385-412.385
		c-18.031,0-32.648-14.617-32.648-32.648S16.29,0.836,34.32,0.836C297.714,0.836,512,215.122,512,478.516
		C512,496.547,497.383,511.164,479.352,511.164z"/>
</g>
</svg>
