<?xml version="1.0" encoding="utf-8"?>
<!-- Generator: Adobe Illustrator 17.1.0, SVG Export Plug-In . SVG Version: 6.00 Build 0)  -->
<!DOCTYPE svg PUBLIC "-//W3C//DTD SVG 1.1//EN" "http://www.w3.org/Graphics/SVG/1.1/DTD/svg11.dtd">
<svg version="1.1" id="Layer_1" xmlns="http://www.w3.org/2000/svg" xmlns:xlink="http://www.w3.org/1999/xlink" x="0px" y="0px"
	 viewBox="0 0 512 512" enable-background="new 0 0 512 512" xml:space="preserve">
<g>
	<g>
		<path fill="#1C0B0B" d="M495.9,447.1l-111-113.6c25.1-34.8,40-77.8,40-124.3C424.9,93.6,333.4,0,220.5,0
			C107.6,0,16.1,93.6,16.1,209.1c0,115.6,91.5,209.2,204.4,209.2c34.8,0,67.6-8.9,96.3-24.6L432.5,512L495.9,447.1z M74.5,209.1
			c0-82.5,65.4-149.4,146-149.4c80.7,0,146,66.9,146,149.4c0,82.5-65.4,149.4-146,149.4C139.9,358.6,74.5,291.7,74.5,209.1z"/>
	</g>
</g>
</svg>
