<?xml version="1.0" encoding="utf-8"?>
<!-- Generator: Adobe Illustrator 17.1.0, SVG Export Plug-In . SVG Version: 6.00 Build 0)  -->
<!DOCTYPE svg PUBLIC "-//W3C//DTD SVG 1.1//EN" "http://www.w3.org/Graphics/SVG/1.1/DTD/svg11.dtd">
<svg version="1.1" id="Layer_1" xmlns="http://www.w3.org/2000/svg" xmlns:xlink="http://www.w3.org/1999/xlink" x="0px" y="0px"
	 viewBox="0 0 512 512" enable-background="new 0 0 512 512" xml:space="preserve">
<path fill="#424242" d="M443.7,102.4h-68.3c0-104.1,0,7.8,0-68.3c0-14.6-19.6-34.1-34.1-34.1H170.7c-14.6,0-34.1,19.6-34.1,34.1
	c0,14.6,0,68.3,0,68.3H68.3c-14.6,0-34.1,19.6-34.1,34.1c0,13.5,0,2.2,0,68.3h68.3v273.1c0,29.1,5,34.1,34.1,34.1h238.9
	c29.1,0,34.1-5,34.1-34.1V204.8h68.3c0,0,0-53.7,0-68.3C477.9,122,458.3,102.4,443.7,102.4z M195.5,52.8h124.1v52.8H195.5V52.8z
	 M204.8,409.6h-34.1V273.1h34.1V409.6z M273.1,409.6h-34.1V273.1h34.1V409.6z M341.3,409.6h-34.1V273.1h34.1V409.6z"/>
</svg>
